<?xml version="1.0"?>
<svg id="Layer_1" data-name="Layer 1" xmlns="http://www.w3.org/2000/svg" viewBox="0 0 1000 1000">
  <defs>
    
  </defs>
  <g>
    <g>
      <path class="cls-1" d="M241.16,599.35c-14.43,0-24.63-8.04-24.83-19.89h9.99c.62,5.98,4.84,11.95,14.84,11.95,9.07,0,14.43-5.15,14.43-11.95,0-19.37-38.85-7.01-38.85-33.69,0-11.85,9.58-19.89,23.8-19.89s22.67,7.52,23.8,18.44h-10.3c-.62-4.84-5.15-10.3-13.91-10.41-7.73-.21-13.81,3.81-13.81,11.54,0,18.55,38.74,7.01,38.74,33.59,0,10.2-8.35,20.3-23.9,20.3Z"></path>
      <path class="cls-1" d="M284.84,526.81h9.38v45.44c0,13.19,7.11,18.86,17.72,18.86s17.62-5.67,17.62-18.86v-45.44h9.38v45.34c0,18.65-12.26,27.2-27.1,27.2s-27-8.55-27-27.2v-45.34Z"></path>
      <path class="cls-1" d="M421.25,562.87c0,22.26-14.53,35.75-38.12,35.75h-22.36v-71.82h22.36c23.6,0,38.12,13.81,38.12,36.06ZM383.13,590.9c18.75,0,28.54-10.51,28.54-28.03s-9.79-28.44-28.54-28.44h-12.98v56.47h12.98Z"></path>
      <path class="cls-1" d="M449.17,526.81v64.19h25.14v7.62h-34.52v-71.82h9.38Z"></path>
      <path class="cls-1" d="M529.12,534.43h-29.26v24.01h26.17v7.73h-26.17v24.73h29.26v7.73h-38.64v-71.92h38.64v7.73Z"></path>
      <path class="cls-1" d="M615.15,547.62h-11.23c-3.92-8.35-11.75-13.19-21.84-13.19-15.15,0-26.48,10.92-26.48,28.23s11.33,28.13,26.48,28.13c14.12,0,23.8-9.07,25.24-23.29h-28.64v-7.62h38.64v7.21c-1.65,17.83-15.76,32.15-35.24,32.15s-36.06-15.04-36.06-36.58,15.87-36.68,36.06-36.68c15.15,0,27.72,7.83,33.07,21.64Z"></path>
      <path class="cls-1" d="M692.32,526.71v71.92h-9.38l-37.71-57.19v57.19h-9.38v-71.92h9.38l37.71,57.08v-57.08h9.38Z"></path>
      <path class="cls-1" d="M747.03,599.35c-20.2,0-36.06-15.15-36.06-36.68s15.87-36.68,36.06-36.68,36.06,15.15,36.06,36.68-15.76,36.68-36.06,36.68ZM747.03,591.21c15.15,0,26.48-11.02,26.48-28.54s-11.33-28.54-26.48-28.54-26.48,10.92-26.48,28.54,11.33,28.54,26.48,28.54Z"></path>
    </g>
    <g>
      <path class="cls-1" d="M345.79,613.43h3.12l4.89,19.02,5.41-19.02h3.28l5.15,18.96,4.92-18.96h3.15l-6.5,22.43h-3.28l-5.21-18.06-5.41,18.06-3.25.03-6.28-22.47Z"></path>
      <path class="cls-1" d="M394.91,636.09c-6.31,0-11.27-4.73-11.27-11.46s4.96-11.46,11.27-11.46,11.26,4.73,11.26,11.46-4.92,11.46-11.26,11.46ZM394.91,633.54c4.73,0,8.27-3.44,8.27-8.91s-3.54-8.92-8.27-8.92-8.27,3.41-8.27,8.92,3.54,8.91,8.27,8.91Z"></path>
      <path class="cls-1" d="M426.01,636.09c-6.31,0-11.27-4.73-11.27-11.46s4.96-11.46,11.27-11.46,11.26,4.73,11.26,11.46-4.92,11.46-11.26,11.46ZM426.01,633.54c4.73,0,8.27-3.44,8.27-8.91s-3.54-8.92-8.27-8.92-8.27,3.41-8.27,8.92,3.54,8.91,8.27,8.91Z"></path>
      <path class="cls-1" d="M465.82,624.69c0,6.95-4.54,11.17-11.91,11.17h-6.98v-22.43h6.98c7.37,0,11.91,4.31,11.91,11.27ZM453.92,633.45c5.86,0,8.92-3.28,8.92-8.75s-3.06-8.88-8.92-8.88h-4.06v17.64h4.06Z"></path>
      <path class="cls-1" d="M497.12,626.5h-4.31v9.37h-2.93v-22.43h7.24c5.28,0,7.76,2.9,7.76,6.57,0,3.41-2.19,6.5-7.76,6.5ZM497.12,624.08c3.35,0,4.76-1.58,4.76-4.09s-1.42-4.15-4.76-4.15h-4.31v8.24h4.31Z"></path>
      <path class="cls-1" d="M527.57,630.87h-9.78l-1.8,4.99h-3.09l8.11-22.3h3.38l8.08,22.3h-3.09l-1.8-4.99ZM522.68,617.16l-4.06,11.33h8.11l-4.06-11.33Z"></path>
      <path class="cls-1" d="M548.91,636.09c-4.51,0-7.69-2.51-7.76-6.21h3.12c.19,1.87,1.51,3.73,4.63,3.73,2.83,0,4.51-1.61,4.51-3.73,0-6.05-12.13-2.19-12.13-10.52,0-3.7,2.99-6.21,7.43-6.21s7.08,2.35,7.43,5.76h-3.22c-.19-1.51-1.61-3.22-4.34-3.25-2.41-.06-4.31,1.19-4.31,3.61,0,5.79,12.1,2.19,12.1,10.49,0,3.19-2.61,6.34-7.47,6.34Z"></path>
      <path class="cls-1" d="M573.6,636.09c-4.51,0-7.69-2.51-7.76-6.21h3.12c.19,1.87,1.51,3.73,4.63,3.73,2.83,0,4.51-1.61,4.51-3.73,0-6.05-12.13-2.19-12.13-10.52,0-3.7,2.99-6.21,7.43-6.21s7.08,2.35,7.43,5.76h-3.22c-.19-1.51-1.61-3.22-4.34-3.25-2.41-.06-4.31,1.19-4.31,3.61,0,5.79,12.1,2.19,12.1,10.49,0,3.19-2.61,6.34-7.47,6.34Z"></path>
      <path class="cls-1" d="M591.18,613.43h2.93v22.43h-2.93v-22.43Z"></path>
      <path class="cls-1" d="M615.06,636.09c-6.31,0-11.27-4.73-11.27-11.46s4.96-11.46,11.27-11.46,11.26,4.73,11.26,11.46-4.92,11.46-11.26,11.46ZM615.06,633.54c4.73,0,8.27-3.44,8.27-8.91s-3.54-8.92-8.27-8.92-8.27,3.41-8.27,8.92,3.54,8.91,8.27,8.91Z"></path>
      <path class="cls-1" d="M653.63,613.4v22.47h-2.93l-11.78-17.86v17.86h-2.93v-22.47h2.93l11.78,17.83v-17.83h2.93Z"></path>
    </g>
    <rect class="cls-1" x="216.32" y="622.92" width="100.9" height="3.38"></rect>
    <rect class="cls-1" x="682.2" y="622.92" width="100.9" height="3.38"></rect>
  </g>
  <g>
    <path class="cls-1" d="M566.78,488.72v-1.26c-1.8.44-3.53.87-5.22,1.26h5.22Z"></path>
    <path class="cls-1" d="M533.73,423.71c-9.84,3.11-20.02,6.33-29.93,9.78-6.66,2.32-13.31,5.05-19.74,7.69-4.94,2.03-10.05,4.12-15.14,6.03-11.79,4.41-24,7.35-36.29,8.74v8.97c11.5-2.38,22.83-6.16,33.78-9.83,3.56-1.19,7.11-2.38,10.68-3.52,9.86-3.16,19.86-6.5,29.52-9.73,16.49-5.5,33.55-11.2,50.5-16.22,3.07-.91,6.15-1.73,9.24-2.55l.41-.11v-10.15c-4.82,1.7-9.55,3.35-14.26,4.89-6.25,2.05-12.52,4.04-18.79,6.02Z"></path>
    <path class="cls-1" d="M526,461.87c-32.9,10.29-63.45,17.91-93.36,23.29v2.78c3.35-.64,6.7-1.27,10.06-1.83,27.83-4.68,50.58-8.46,71.6-11.91,17.64-2.89,35.3-6.93,52.48-12v-13.32l-6.81,2.18c-11.32,3.63-22.63,7.26-33.97,10.81Z"></path>
    <path class="cls-1" d="M566.78,427.36l-.86.22c-.81.2-1.62.41-2.43.63-9.52,2.59-19.01,5.98-28.19,9.26-6.44,2.3-13.11,4.68-19.74,6.77-26.42,8.32-53.41,16.4-79.5,24.22-1.22.37-2.38.63-3.42.83v11.65c4.26-.95,8.53-1.88,12.8-2.81,16.82-3.67,34.21-7.46,51.01-12.21,18.82-5.32,37.78-11.35,56.13-17.18,4.73-1.51,9.47-3.01,14.2-4.51v-16.87Z"></path>
    <path class="cls-1" d="M455.06,488.72h16.34c18.71-3.42,36.28-5.68,53.56-6.92,15.76-1.13,30.57-5.77,41.82-9.76v-5.23c-18.93,5.46-38.09,9.19-60.92,13.08-16.94,2.89-33.87,5.86-50.8,8.83Z"></path>
    <path class="cls-1" d="M506.68,363.38l4.79,1.12c9.24,2.16,18.8,4.4,28.11,6.99,4.12,1.14,8.27,3.14,12.01,5.78,4.66,3.29,7.19,8.15,7.16,13.31-.12,5.31-3.04,10.18-8.02,13.36-6.27,4.01-13.09,5.49-21.35,7.01-5.98,1.1-12.49,2.18-19.89,3.29-10.34,1.56-18.66,7.1-26.1,12.86l-2.23,1.74c-6.36,4.96-12.93,10.09-20.86,12.87-9.61,3.36-18.66,5.04-27.65,5.12v4.93c10.18-1.11,20.2-3.44,29.81-6.92,6.97-2.53,13.99-5.28,20.78-7.95,7.91-3.11,16.1-6.32,24.26-9.19,7.57-2.67,15.35-5.12,22.88-7.49,9.83-3.1,19.99-6.3,29.75-10,1.73-.65,3.46-1.26,5.19-1.86l1.47-.52v-36.24c-7.51-1.99-14.29-4.36-20.71-7.23-9.11-4.07-19.05-6.78-28.66-9.39l-1.46-.4h-46.97c4.83,1.13,9.66,2.25,14.49,3.37,7.74,1.8,15.48,3.6,23.22,5.42Z"></path>
    <path class="cls-1" d="M464.75,390.83c-4.61-1.19-9.51-1.72-14.24-2.24-5.95-.65-11.91-1.22-17.87-1.78v22.31c10.51-3.7,21.5-7.76,32.68-12.08.99-.38,1.87-1.27,2.8-2.2.23-.23.45-.45.68-.67-.3-.29-.59-.59-.88-.89-1.07-1.11-2.08-2.15-3.18-2.44Z"></path>
    <path class="cls-1" d="M477.94,411.15c4.99-3.2,10.89-4.46,16.6-5.68,1.88-.4,3.76-.8,5.6-1.27l2.04-.52c6.42-1.63,13.05-3.31,19.43-5.3,2.87-.9,5.76-2.43,8.13-4.31,2.5-1.98,3.75-4.56,3.57-7.23-.2-2.74-1.95-5.25-4.8-6.9-5.34-3.08-11.64-4.12-17.1-4.74-8.9-1-17.8-1.94-26.71-2.88-13.53-1.44-27.53-2.92-41.26-4.56-3.19-.38-6.55-.84-10.79-1.46v6.38c8.78,4.64,17.3,6.44,26.05,5.51,4.89-.52,9.99-.34,14.76.53,6.53,1.19,10.01,6.2,9.27,13.35-.76,7.54-4.79,13.46-12.69,18.61-11.73,7.65-24.88,10.89-36.21,13.05-.39.08-.79.12-1.18.17v12.73c9.98-2.28,18.54-6.22,26.14-12,6.63-5.05,12.89-9.46,19.16-13.48Z"></path>
    <path class="cls-1" d="M471.88,403.85c4.09-2.99,6.4-7.48,6.67-12.97.22-4.61-1.68-7.19-6.02-8.16-2.71-.6-5.57-1.16-8.1-.75-10.72,1.75-21.13.3-31.8-4.46l.08,5.07c9.08.88,18.47,1.78,27.69,2.83,2.89.33,5.87,1.24,8.4,2.57,3.12,1.65,4.84,3.81,4.84,6.1,0,.03,0,.06,0,.09-.04,2.18-1.67,4.15-4.58,5.54-8.07,3.85-16.93,7.46-27.11,11.03-3.09,1.09-6.29,1.85-9.32,2.51v6.42c8.73-1.39,17.17-3.87,25.1-7.39,4.43-1.96,9.06-4.73,14.13-8.44Z"></path>
    <path class="cls-1" d="M566.78,367.42v-12.84h-33.72c5.88,1.93,11.66,4.22,17.25,6.84,5.02,2.36,10.42,4.32,16.48,6Z"></path>
    <path class="cls-1" d="M499.74,488.72h40.51c9.08-1.48,18.04-3.32,26.52-5.47v-6.54c-13.99,4.69-28.09,7.79-41.91,9.23-8.82.92-17.08,1.8-25.12,2.78Z"></path>
    <path class="cls-1" d="M494.69,414.8c5.48-3.42,11.73-4.37,17.78-5.29,1.99-.3,3.98-.6,5.95-.99l2.19-.43c6.81-1.34,13.85-2.73,20.65-4.52,3.06-.81,6.2-2.39,8.82-4.45,2.81-2.21,4.38-5.29,4.41-8.68,0-3.55-1.6-6.82-4.48-9.16-5.3-4.32-11.76-6.23-17.38-7.53-9.2-2.12-18.41-4.19-27.63-6.25-13.94-3.12-28.36-6.35-42.49-9.75-3.53-.85-7.28-1.83-12.15-3.17h-17.73v7.83c10.47,1.24,20.96,2.42,31.45,3.61,7.27.82,14.53,1.64,21.8,2.48l4.63.53c8.97,1.03,18.24,2.09,27.29,3.46,4,.6,8.09,1.89,11.84,3.74,4.7,2.31,7.54,6.08,7.8,10.35.3,4.41-2.21,8.68-6.81,11.7-5.71,3.75-12.11,5.48-19.88,7.37-5.65,1.37-11.79,2.76-18.75,4.24-9.78,2.08-17.34,7.24-24.06,12.49l-2.02,1.59c-5.73,4.52-11.65,9.2-19.03,12.08-4.71,1.84-9.5,3.32-14.25,4.42v2c15.94-.09,29.35-4.38,40.95-13.1,7.32-5.5,14.22-10.27,21.11-14.56Z"></path>
  </g>
</svg>